<svg width="80" height="80" viewBox="0 0 80 80" fill="none" xmlns="http://www.w3.org/2000/svg">
<circle cx="40" cy="40" r="40" fill="white"/>
<path opacity="0.4" d="M39.9999 25.6517V60.0002C39.6599 60.0002 39.2999 59.9359 39.0199 59.7645L38.9399 59.7216C35.0999 57.4717 28.4 55.1147 24.06 54.4933L23.48 54.4076C21.56 54.1505 20 52.222 20 50.1649V24.2804C20 21.7305 21.94 19.802 24.32 20.0163C28.52 20.3805 34.8799 22.6519 38.4399 25.0303L38.9399 25.3517C39.2399 25.5446 39.6199 25.6517 39.9999 25.6517Z" fill="#6F74F0"/>
<path d="M59.9999 24.3016V50.1648C59.9999 52.2218 58.4399 54.1503 56.5199 54.4074L55.8599 54.4931C51.4999 55.1145 44.78 57.493 40.94 59.7643C40.68 59.9358 40.36 60 40 60V25.6516C40.38 25.6516 40.76 25.5444 41.06 25.3516L41.4 25.1159C44.96 22.716 51.3399 20.4232 55.5399 20.0375H55.6599C58.0399 19.8233 59.9999 21.7303 59.9999 24.3016Z" fill="#4F5DE4"/>
<path d="M31.5007 34.0943H27.0007C26.1807 34.0943 25.5007 33.3657 25.5007 32.4872C25.5007 31.6087 26.1807 30.8801 27.0007 30.8801H31.5007C32.3207 30.8801 33.0007 31.6087 33.0007 32.4872C33.0007 33.3657 32.3207 34.0943 31.5007 34.0943Z" fill="#4F5DE4"/>
<path d="M33.0007 40.5225H27.0007C26.1807 40.5225 25.5007 39.794 25.5007 38.9154C25.5007 38.0369 26.1807 37.3083 27.0007 37.3083H33.0007C33.8207 37.3083 34.5007 38.0369 34.5007 38.9154C34.5007 39.794 33.8207 40.5225 33.0007 40.5225Z" fill="#4F5DE4"/>
</svg>
