<svg width="512" height="512" viewBox="0 0 512 512" fill="none" xmlns="http://www.w3.org/2000/svg">
<rect width="512" height="512" fill="white"/>
<circle cx="256" cy="256" r="40" fill="white"/>
<path opacity="0.4" d="M256 241.652V276C255.66 276 255.3 275.936 255.02 275.764L254.94 275.722C251.1 273.472 244.4 271.115 240.06 270.493L239.48 270.408C237.56 270.15 236 268.222 236 266.165V240.28C236 237.73 237.94 235.802 240.32 236.016C244.52 236.381 250.88 238.652 254.44 241.03L254.94 241.352C255.24 241.545 255.62 241.652 256 241.652Z" fill="#6F74F0"/>
<path d="M276 240.302V266.165C276 268.222 274.44 270.15 272.52 270.407L271.86 270.493C267.5 271.115 260.78 273.493 256.94 275.764C256.68 275.936 256.36 276 256 276V241.652C256.38 241.652 256.76 241.544 257.06 241.352L257.4 241.116C260.96 238.716 267.34 236.423 271.54 236.038H271.66C274.04 235.823 276 237.73 276 240.302Z" fill="#4F5DE4"/>
<path d="M247.501 250.094H243.001C242.181 250.094 241.501 249.366 241.501 248.487C241.501 247.609 242.181 246.88 243.001 246.88H247.501C248.321 246.88 249.001 247.609 249.001 248.487C249.001 249.366 248.321 250.094 247.501 250.094Z" fill="#4F5DE4"/>
<path d="M249.001 256.522H243.001C242.181 256.522 241.501 255.794 241.501 254.915C241.501 254.037 242.181 253.308 243.001 253.308H249.001C249.821 253.308 250.501 254.037 250.501 254.915C250.501 255.794 249.821 256.522 249.001 256.522Z" fill="#4F5DE4"/>
<path d="M245.292 283.336V294H243.9V283.336H245.292ZM248.72 283.336V284.493H240.48V283.336H248.72ZM252.653 294.146C252.101 294.146 251.601 294.054 251.151 293.868C250.707 293.678 250.324 293.412 250.001 293.07C249.684 292.728 249.44 292.323 249.269 291.854C249.098 291.385 249.013 290.873 249.013 290.316V290.008C249.013 289.364 249.108 288.79 249.298 288.287C249.489 287.779 249.748 287.35 250.075 286.998C250.402 286.646 250.773 286.38 251.188 286.2C251.603 286.019 252.033 285.929 252.477 285.929C253.043 285.929 253.532 286.026 253.942 286.222C254.357 286.417 254.696 286.69 254.96 287.042C255.224 287.389 255.419 287.799 255.546 288.272C255.673 288.741 255.736 289.254 255.736 289.811V290.418H249.818V289.312H254.381V289.21C254.362 288.858 254.289 288.517 254.162 288.185C254.04 287.853 253.844 287.579 253.576 287.364C253.307 287.149 252.941 287.042 252.477 287.042C252.169 287.042 251.886 287.108 251.627 287.24C251.369 287.367 251.146 287.557 250.961 287.811C250.775 288.065 250.631 288.375 250.529 288.741C250.426 289.107 250.375 289.53 250.375 290.008V290.316C250.375 290.692 250.426 291.046 250.529 291.378C250.636 291.705 250.79 291.993 250.99 292.242C251.195 292.491 251.442 292.687 251.73 292.828C252.023 292.97 252.355 293.041 252.726 293.041C253.205 293.041 253.61 292.943 253.942 292.748C254.274 292.552 254.564 292.291 254.813 291.964L255.634 292.616C255.463 292.875 255.246 293.121 254.982 293.355C254.718 293.59 254.394 293.78 254.008 293.927C253.627 294.073 253.175 294.146 252.653 294.146ZM259.625 292.777L261.793 286.075H263.178L260.329 294H259.42L259.625 292.777ZM257.816 286.075L260.05 292.813L260.204 294H259.296L256.425 286.075H257.816ZM264.005 290.125V289.957C264.005 289.386 264.088 288.856 264.254 288.368C264.42 287.875 264.66 287.447 264.972 287.086C265.285 286.72 265.663 286.437 266.107 286.236C266.552 286.031 267.05 285.929 267.602 285.929C268.158 285.929 268.659 286.031 269.103 286.236C269.552 286.437 269.933 286.72 270.246 287.086C270.563 287.447 270.805 287.875 270.971 288.368C271.137 288.856 271.22 289.386 271.22 289.957V290.125C271.22 290.697 271.137 291.227 270.971 291.715C270.805 292.203 270.563 292.63 270.246 292.997C269.933 293.358 269.555 293.641 269.11 293.846C268.671 294.046 268.173 294.146 267.616 294.146C267.06 294.146 266.559 294.046 266.115 293.846C265.67 293.641 265.29 293.358 264.972 292.997C264.66 292.63 264.42 292.203 264.254 291.715C264.088 291.227 264.005 290.697 264.005 290.125ZM265.36 289.957V290.125C265.36 290.521 265.407 290.895 265.5 291.246C265.592 291.593 265.731 291.9 265.917 292.169C266.107 292.438 266.344 292.65 266.627 292.806C266.911 292.958 267.24 293.033 267.616 293.033C267.987 293.033 268.312 292.958 268.59 292.806C268.874 292.65 269.108 292.438 269.293 292.169C269.479 291.9 269.618 291.593 269.711 291.246C269.809 290.895 269.857 290.521 269.857 290.125V289.957C269.857 289.566 269.809 289.198 269.711 288.851C269.618 288.5 269.477 288.189 269.286 287.921C269.101 287.647 268.866 287.433 268.583 287.276C268.305 287.12 267.978 287.042 267.602 287.042C267.23 287.042 266.903 287.12 266.62 287.276C266.342 287.433 266.107 287.647 265.917 287.921C265.731 288.189 265.592 288.5 265.5 288.851C265.407 289.198 265.36 289.566 265.36 289.957Z" fill="#4F5DE4"/>
</svg>
